<svg width="32" height="32" viewBox="0 0 32 32" fill="none" xmlns="http://www.w3.org/2000/svg">
<rect width="32" height="32" rx="5" fill="black"/>
<mask id="path-2-outside-1_312_14" maskUnits="userSpaceOnUse" x="7" y="3" width="18" height="25" fill="black">
<rect fill="white" x="7" y="3" width="18" height="25"/>
<path d="M23.3804 25.8574H22.9645C22.9645 25.8529 22.9624 25.8485 22.9616 25.8444L22.9502 25.7936C22.9429 25.7602 22.935 25.7271 22.9268 25.6942C22.9233 25.6788 22.9196 25.6633 22.9158 25.6478C22.905 25.6045 22.8936 25.5612 22.8819 25.5178L22.8784 25.5054C22.8656 25.4585 22.8522 25.4117 22.8382 25.3652L22.8242 25.3202C22.8146 25.2882 22.8043 25.2564 22.795 25.2247C22.7895 25.2073 22.7836 25.1902 22.7781 25.1731C22.7679 25.1424 22.7574 25.1118 22.7466 25.0814C22.7411 25.0654 22.7352 25.0491 22.7297 25.0334C22.7161 24.9953 22.7021 24.9575 22.6877 24.9199C22.6845 24.9119 22.6818 24.9042 22.6786 24.8962C22.6617 24.852 22.6439 24.8081 22.6258 24.7643C22.6194 24.7482 22.6127 24.7325 22.606 24.7168C22.5938 24.6892 22.5815 24.6588 22.569 24.6301L22.5454 24.5768C22.5331 24.5492 22.5206 24.5216 22.5077 24.494C22.4999 24.4769 22.4917 24.4595 22.4835 24.4424C22.4686 24.4107 22.4543 24.3792 22.4377 24.348C22.4316 24.3361 22.4261 24.324 22.4199 24.3118C22.3992 24.2707 22.3779 24.229 22.3563 24.1893L22.3272 24.1377L22.2861 24.0629L22.254 24.0076C22.2406 23.9845 22.2271 23.9613 22.2134 23.9381C22.2026 23.9193 22.1916 23.9005 22.1805 23.8829C22.1653 23.8578 22.1513 23.8332 22.1347 23.8084L22.0927 23.741C22.0729 23.7101 22.053 23.6789 22.0326 23.6483C22.0198 23.6289 22.0069 23.6099 21.9938 23.5908C21.9807 23.5718 21.9664 23.55 21.9524 23.5298C21.9384 23.5097 21.9232 23.4895 21.9104 23.4697C21.8976 23.4498 21.8836 23.4318 21.8699 23.4145C21.8561 23.3971 21.8407 23.3739 21.8258 23.3537L21.7847 23.2985C21.7555 23.2618 21.7287 23.2251 21.7001 23.1881L21.6601 23.1376C21.6432 23.1163 21.6257 23.0954 21.6085 23.0744L21.57 23.028C21.5522 23.0067 21.5341 22.9858 21.5161 22.9645L21.4781 22.9209L21.4216 22.8569L21.388 22.8199C21.3183 22.7434 21.2469 22.6681 21.1736 22.5946L21.1416 22.5623L21.0745 22.4969L21.0415 22.4654C21.0182 22.4431 20.9949 22.421 20.9712 22.3992L20.947 22.3771C20.8645 22.3012 20.7796 22.2272 20.6933 22.1563L20.6696 22.1367C20.643 22.1146 20.6162 22.0928 20.5891 22.0713L20.5623 22.0497C20.5331 22.0277 20.5066 22.0058 20.4783 21.984L20.464 21.9733C20.3686 21.9004 20.2709 21.8295 20.1724 21.7613L20.1587 21.7516C20.1274 21.7304 20.0962 21.7094 20.0647 21.6887L20.044 21.6752C20.0119 21.6539 19.9796 21.6332 19.9472 21.6125L19.9417 21.6092C19.8343 21.5413 19.7249 21.4762 19.6135 21.414L19.6092 21.4113C19.5739 21.3917 19.5386 21.3726 19.5033 21.3536L19.4878 21.3453C19.3 21.245 19.1071 21.153 18.9092 21.0693L18.8969 21.064C18.8447 21.0419 18.7922 21.0207 18.7391 20.9997H19.783C19.953 20.9997 20.091 20.8145 20.091 20.5857C20.091 20.3568 19.953 20.1716 19.783 20.1716H19.4721C19.4913 20.1252 19.5126 20.0728 19.5357 20.0137C19.8297 19.8404 20.3471 19.471 20.8604 18.7925L20.8645 18.7873C20.9034 18.7365 20.9416 18.684 20.9791 18.6297L20.9867 18.6189C21.024 18.5656 21.0614 18.5107 21.0981 18.4533L21.108 18.4381C21.1255 18.4105 21.143 18.3829 21.1605 18.3553C21.1605 18.3553 21.1605 18.3531 21.1626 18.3517C21.1806 18.3241 21.1984 18.2937 21.2162 18.2642L21.2276 18.2452C21.2428 18.2198 21.2582 18.1938 21.2731 18.1676C21.276 18.1629 21.2789 18.1582 21.2816 18.1532C21.2988 18.1234 21.316 18.0931 21.3329 18.0624L21.3446 18.0412C21.3586 18.0158 21.3723 17.9901 21.386 17.9642C21.3901 17.957 21.3941 17.9495 21.3979 17.9421C21.4143 17.9109 21.4306 17.8794 21.4469 17.8474L21.4583 17.825C21.4711 17.7991 21.4843 17.7726 21.4971 17.7461L21.5111 17.7185C21.5269 17.6859 21.5423 17.6528 21.5578 17.6194L21.5674 17.5981C21.5802 17.5705 21.5928 17.5429 21.6053 17.5153L21.6202 17.4822C21.6348 17.4488 21.6494 17.4151 21.6634 17.3812C21.666 17.3751 21.6686 17.3687 21.6709 17.3627C21.6841 17.3315 21.6969 17.2997 21.7097 17.2677L21.7243 17.2313C21.7363 17.2009 21.7482 17.1703 21.7599 17.1396L21.7686 17.1165C21.7824 17.08 21.7958 17.0428 21.8092 17.006L21.8232 16.9668C21.8337 16.9376 21.8439 16.9078 21.8541 16.878C21.8579 16.8669 21.8617 16.8559 21.8652 16.8448C21.878 16.8067 21.8909 16.7678 21.9034 16.7289C21.9075 16.7154 21.9119 16.7013 21.9159 16.6886L21.9451 16.5978C21.9489 16.5845 21.953 16.5702 21.9568 16.5583C21.9687 16.5183 21.9807 16.4774 21.9921 16.4363C21.9959 16.4233 21.9994 16.4101 22.0029 16.3968C22.0116 16.3651 22.0204 16.3333 22.0288 16.301C22.0326 16.2864 22.0364 16.2718 22.0405 16.2572C22.0513 16.2146 22.0621 16.1719 22.0726 16.1285L22.0813 16.0924C22.0895 16.0579 22.0976 16.0231 22.1055 15.988L22.116 15.9411C22.1259 15.8961 22.1359 15.8511 22.1452 15.8053C22.1472 15.7965 22.149 15.7873 22.1507 15.7777C22.1589 15.7382 22.1668 15.6982 22.1744 15.6582C22.1776 15.6419 22.1805 15.6256 22.1837 15.6093C22.1913 15.5682 22.1986 15.5265 22.2059 15.4854C22.2073 15.4765 22.2091 15.468 22.2105 15.4594C22.2187 15.4108 22.2267 15.3619 22.2344 15.3126C22.2371 15.296 22.2397 15.2794 22.242 15.2626C22.2481 15.2226 22.254 15.1823 22.2598 15.1414L22.2651 15.1039C22.2721 15.0531 22.2788 15.002 22.2852 14.9501C22.2872 14.9338 22.289 14.9176 22.291 14.901C22.2961 14.8598 22.3007 14.8184 22.305 14.7768C22.3068 14.7619 22.3085 14.7472 22.31 14.7323C22.3156 14.679 22.3209 14.6252 22.3257 14.5709C22.3257 14.5557 22.3284 14.5405 22.3295 14.525C22.3333 14.4814 22.3371 14.4375 22.3403 14.3934C22.3403 14.3771 22.3429 14.3608 22.3441 14.3445C22.3482 14.2882 22.352 14.2315 22.3555 14.1745C22.3555 14.1615 22.3555 14.1469 22.3575 14.1353C22.3601 14.0878 22.3628 14.0401 22.3648 13.992C22.3648 13.9746 22.3648 13.9572 22.3671 13.9398C22.3695 13.8805 22.3718 13.8209 22.3736 13.7604C22.3736 13.7521 22.3736 13.7436 22.3736 13.735C22.3751 13.6813 22.3763 13.627 22.3771 13.5722C22.3771 13.5542 22.3771 13.5363 22.3771 13.5183C22.3771 13.4595 22.3771 13.4002 22.3771 13.3406V13.3268C22.3771 13.2633 22.3771 13.199 22.3771 13.1336V13.0783C22.3771 13.0231 22.3747 12.9652 22.3733 12.9078V12.8766C22.3712 12.8103 22.3686 12.7432 22.366 12.6759C22.366 12.6585 22.3642 12.6408 22.3636 12.6234C22.3611 12.5668 22.3582 12.5097 22.3549 12.4523C22.3549 12.4382 22.3549 12.4247 22.3526 12.4095C22.3485 12.3405 22.344 12.2709 22.3391 12.2008L22.3356 12.152C22.3313 12.0935 22.3269 12.0347 22.3219 11.9753C22.3219 11.9582 22.3193 11.9411 22.3179 11.924C22.3117 11.8522 22.305 11.7796 22.298 11.7067C22.298 11.6929 22.2951 11.6791 22.2939 11.6651C22.2878 11.6029 22.2811 11.5403 22.2744 11.4771C22.2724 11.458 22.2703 11.4393 22.268 11.4202C22.2598 11.3451 22.2511 11.2698 22.2417 11.1933C22.2417 11.1839 22.2391 11.1745 22.2379 11.1657C22.2296 11.0972 22.2207 11.0284 22.2114 10.9592C22.2085 10.9388 22.2058 10.9184 22.2029 10.898C22.192 10.8196 22.1809 10.7405 22.1694 10.6608C21.0027 2.80104 12.7352 4.07659 12.7352 4.07659L13 5.76537L8 10.7644L8.21846 12.6947L10.1125 13.7988C10.197 13.5957 10.3054 13.4022 10.4357 13.2222C11.6578 11.8881 14.0287 10.8408 14.7074 10.6236C14.8433 10.5802 14.9206 10.5584 14.9206 10.5584C11.6741 14.535 12.0434 19.0906 12.188 20.1766C12.0375 20.2042 11.9212 20.3761 11.9212 20.5859C11.9212 20.8145 12.0591 21 12.2291 21H13.273C11.5369 21.6877 10.1588 22.9976 9.43966 24.6436C9.43881 24.6459 9.43784 24.6481 9.43674 24.6503C9.38366 24.7724 9.33427 24.8964 9.28858 25.0221C9.28866 25.0234 9.28866 25.0247 9.28858 25.0259C9.27633 25.0602 9.26437 25.0944 9.2527 25.1289C9.24833 25.1413 9.24395 25.1537 9.23987 25.1664C9.22937 25.1974 9.21965 25.2285 9.2107 25.26C9.20545 25.276 9.20049 25.2923 9.19554 25.3083C9.1862 25.3379 9.17716 25.3677 9.16841 25.3975L9.15266 25.4527C9.1445 25.4803 9.13633 25.5098 9.12875 25.5385C9.12321 25.559 9.11795 25.5791 9.1127 25.5995C9.1057 25.6271 9.09841 25.6547 9.0917 25.6824C9.085 25.71 9.07858 25.7376 9.07216 25.7668C9.06575 25.7961 9.05758 25.8303 9.05058 25.8623H8.63437C8.55434 25.8607 8.47476 25.8741 8.4003 25.902C8.32584 25.9298 8.25801 25.9714 8.20078 26.0244C8.14356 26.0774 8.09808 26.1407 8.06704 26.2105C8.036 26.2803 8.02001 26.3553 8.02001 26.4311C8.02001 26.5069 8.036 26.5819 8.06704 26.6517C8.09808 26.7215 8.14356 26.7848 8.20078 26.8378C8.25801 26.8908 8.32584 26.9324 8.4003 26.9602C8.47476 26.9881 8.55434 27.0015 8.63437 26.9999H23.3856C23.4657 27.0015 23.5453 26.9881 23.6197 26.9602C23.6942 26.9324 23.762 26.8908 23.8192 26.8378C23.8765 26.7848 23.9219 26.7215 23.953 26.6517C23.984 26.5819 24 26.5069 24 26.4311C24 26.3553 23.984 26.2803 23.953 26.2105C23.9219 26.1407 23.8765 26.0774 23.8192 26.0244C23.762 25.9714 23.6942 25.9298 23.6197 25.902C23.5453 25.8741 23.4657 25.8607 23.3856 25.8623L23.3804 25.8574Z"/>
</mask>
<path d="M23.3804 25.8574H22.9645C22.9645 25.8529 22.9624 25.8485 22.9616 25.8444L22.9502 25.7936C22.9429 25.7602 22.935 25.7271 22.9268 25.6942C22.9233 25.6788 22.9196 25.6633 22.9158 25.6478C22.905 25.6045 22.8936 25.5612 22.8819 25.5178L22.8784 25.5054C22.8656 25.4585 22.8522 25.4117 22.8382 25.3652L22.8242 25.3202C22.8146 25.2882 22.8043 25.2564 22.795 25.2247C22.7895 25.2073 22.7836 25.1902 22.7781 25.1731C22.7679 25.1424 22.7574 25.1118 22.7466 25.0814C22.7411 25.0654 22.7352 25.0491 22.7297 25.0334C22.7161 24.9953 22.7021 24.9575 22.6877 24.9199C22.6845 24.9119 22.6818 24.9042 22.6786 24.8962C22.6617 24.852 22.6439 24.8081 22.6258 24.7643C22.6194 24.7482 22.6127 24.7325 22.606 24.7168C22.5938 24.6892 22.5815 24.6588 22.569 24.6301L22.5454 24.5768C22.5331 24.5492 22.5206 24.5216 22.5077 24.494C22.4999 24.4769 22.4917 24.4595 22.4835 24.4424C22.4686 24.4107 22.4543 24.3792 22.4377 24.348C22.4316 24.3361 22.4261 24.324 22.4199 24.3118C22.3992 24.2707 22.3779 24.229 22.3563 24.1893L22.3272 24.1377L22.2861 24.0629L22.254 24.0076C22.2406 23.9845 22.2271 23.9613 22.2134 23.9381C22.2026 23.9193 22.1916 23.9005 22.1805 23.8829C22.1653 23.8578 22.1513 23.8332 22.1347 23.8084L22.0927 23.741C22.0729 23.7101 22.053 23.6789 22.0326 23.6483C22.0198 23.6289 22.0069 23.6099 21.9938 23.5908C21.9807 23.5718 21.9664 23.55 21.9524 23.5298C21.9384 23.5097 21.9232 23.4895 21.9104 23.4697C21.8976 23.4498 21.8836 23.4318 21.8699 23.4145C21.8561 23.3971 21.8407 23.3739 21.8258 23.3537L21.7847 23.2985C21.7555 23.2618 21.7287 23.2251 21.7001 23.1881L21.6601 23.1376C21.6432 23.1163 21.6257 23.0954 21.6085 23.0744L21.57 23.028C21.5522 23.0067 21.5341 22.9858 21.5161 22.9645L21.4781 22.9209L21.4216 22.8569L21.388 22.8199C21.3183 22.7434 21.2469 22.6681 21.1736 22.5946L21.1416 22.5623L21.0745 22.4969L21.0415 22.4654C21.0182 22.4431 20.9949 22.421 20.9712 22.3992L20.947 22.3771C20.8645 22.3012 20.7796 22.2272 20.6933 22.1563L20.6696 22.1367C20.643 22.1146 20.6162 22.0928 20.5891 22.0713L20.5623 22.0497C20.5331 22.0277 20.5066 22.0058 20.4783 21.984L20.464 21.9733C20.3686 21.9004 20.2709 21.8295 20.1724 21.7613L20.1587 21.7516C20.1274 21.7304 20.0962 21.7094 20.0647 21.6887L20.044 21.6752C20.0119 21.6539 19.9796 21.6332 19.9472 21.6125L19.9417 21.6092C19.8343 21.5413 19.7249 21.4762 19.6135 21.414L19.6092 21.4113C19.5739 21.3917 19.5386 21.3726 19.5033 21.3536L19.4878 21.3453C19.3 21.245 19.1071 21.153 18.9092 21.0693L18.8969 21.064C18.8447 21.0419 18.7922 21.0207 18.7391 20.9997H19.783C19.953 20.9997 20.091 20.8145 20.091 20.5857C20.091 20.3568 19.953 20.1716 19.783 20.1716H19.4721C19.4913 20.1252 19.5126 20.0728 19.5357 20.0137C19.8297 19.8404 20.3471 19.471 20.8604 18.7925L20.8645 18.7873C20.9034 18.7365 20.9416 18.684 20.9791 18.6297L20.9867 18.6189C21.024 18.5656 21.0614 18.5107 21.0981 18.4533L21.108 18.4381C21.1255 18.4105 21.143 18.3829 21.1605 18.3553C21.1605 18.3553 21.1605 18.3531 21.1626 18.3517C21.1806 18.3241 21.1984 18.2937 21.2162 18.2642L21.2276 18.2452C21.2428 18.2198 21.2582 18.1938 21.2731 18.1676C21.276 18.1629 21.2789 18.1582 21.2816 18.1532C21.2988 18.1234 21.316 18.0931 21.3329 18.0624L21.3446 18.0412C21.3586 18.0158 21.3723 17.9901 21.386 17.9642C21.3901 17.957 21.3941 17.9495 21.3979 17.9421C21.4143 17.9109 21.4306 17.8794 21.4469 17.8474L21.4583 17.825C21.4711 17.7991 21.4843 17.7726 21.4971 17.7461L21.5111 17.7185C21.5269 17.6859 21.5423 17.6528 21.5578 17.6194L21.5674 17.5981C21.5802 17.5705 21.5928 17.5429 21.6053 17.5153L21.6202 17.4822C21.6348 17.4488 21.6494 17.4151 21.6634 17.3812C21.666 17.3751 21.6686 17.3687 21.6709 17.3627C21.6841 17.3315 21.6969 17.2997 21.7097 17.2677L21.7243 17.2313C21.7363 17.2009 21.7482 17.1703 21.7599 17.1396L21.7686 17.1165C21.7824 17.08 21.7958 17.0428 21.8092 17.006L21.8232 16.9668C21.8337 16.9376 21.8439 16.9078 21.8541 16.878C21.8579 16.8669 21.8617 16.8559 21.8652 16.8448C21.878 16.8067 21.8909 16.7678 21.9034 16.7289C21.9075 16.7154 21.9119 16.7013 21.9159 16.6886L21.9451 16.5978C21.9489 16.5845 21.953 16.5702 21.9568 16.5583C21.9687 16.5183 21.9807 16.4774 21.9921 16.4363C21.9959 16.4233 21.9994 16.4101 22.0029 16.3968C22.0116 16.3651 22.0204 16.3333 22.0288 16.301C22.0326 16.2864 22.0364 16.2718 22.0405 16.2572C22.0513 16.2146 22.0621 16.1719 22.0726 16.1285L22.0813 16.0924C22.0895 16.0579 22.0976 16.0231 22.1055 15.988L22.116 15.9411C22.1259 15.8961 22.1359 15.8511 22.1452 15.8053C22.1472 15.7965 22.149 15.7873 22.1507 15.7777C22.1589 15.7382 22.1668 15.6982 22.1744 15.6582C22.1776 15.6419 22.1805 15.6256 22.1837 15.6093C22.1913 15.5682 22.1986 15.5265 22.2059 15.4854C22.2073 15.4765 22.2091 15.468 22.2105 15.4594C22.2187 15.4108 22.2267 15.3619 22.2344 15.3126C22.2371 15.296 22.2397 15.2794 22.242 15.2626C22.2481 15.2226 22.254 15.1823 22.2598 15.1414L22.2651 15.1039C22.2721 15.0531 22.2788 15.002 22.2852 14.9501C22.2872 14.9338 22.289 14.9176 22.291 14.901C22.2961 14.8598 22.3007 14.8184 22.305 14.7768C22.3068 14.7619 22.3085 14.7472 22.31 14.7323C22.3156 14.679 22.3209 14.6252 22.3257 14.5709C22.3257 14.5557 22.3284 14.5405 22.3295 14.525C22.3333 14.4814 22.3371 14.4375 22.3403 14.3934C22.3403 14.3771 22.3429 14.3608 22.3441 14.3445C22.3482 14.2882 22.352 14.2315 22.3555 14.1745C22.3555 14.1615 22.3555 14.1469 22.3575 14.1353C22.3601 14.0878 22.3628 14.0401 22.3648 13.992C22.3648 13.9746 22.3648 13.9572 22.3671 13.9398C22.3695 13.8805 22.3718 13.8209 22.3736 13.7604C22.3736 13.7521 22.3736 13.7436 22.3736 13.735C22.3751 13.6813 22.3763 13.627 22.3771 13.5722C22.3771 13.5542 22.3771 13.5363 22.3771 13.5183C22.3771 13.4595 22.3771 13.4002 22.3771 13.3406V13.3268C22.3771 13.2633 22.3771 13.199 22.3771 13.1336V13.0783C22.3771 13.0231 22.3747 12.9652 22.3733 12.9078V12.8766C22.3712 12.8103 22.3686 12.7432 22.366 12.6759C22.366 12.6585 22.3642 12.6408 22.3636 12.6234C22.3611 12.5668 22.3582 12.5097 22.3549 12.4523C22.3549 12.4382 22.3549 12.4247 22.3526 12.4095C22.3485 12.3405 22.344 12.2709 22.3391 12.2008L22.3356 12.152C22.3313 12.0935 22.3269 12.0347 22.3219 11.9753C22.3219 11.9582 22.3193 11.9411 22.3179 11.924C22.3117 11.8522 22.305 11.7796 22.298 11.7067C22.298 11.6929 22.2951 11.6791 22.2939 11.6651C22.2878 11.6029 22.2811 11.5403 22.2744 11.4771C22.2724 11.458 22.2703 11.4393 22.268 11.4202C22.2598 11.3451 22.2511 11.2698 22.2417 11.1933C22.2417 11.1839 22.2391 11.1745 22.2379 11.1657C22.2296 11.0972 22.2207 11.0284 22.2114 10.9592C22.2085 10.9388 22.2058 10.9184 22.2029 10.898C22.192 10.8196 22.1809 10.7405 22.1694 10.6608C21.0027 2.80104 12.7352 4.07659 12.7352 4.07659L13 5.76537L8 10.7644L8.21846 12.6947L10.1125 13.7988C10.197 13.5957 10.3054 13.4022 10.4357 13.2222C11.6578 11.8881 14.0287 10.8408 14.7074 10.6236C14.8433 10.5802 14.9206 10.5584 14.9206 10.5584C11.6741 14.535 12.0434 19.0906 12.188 20.1766C12.0375 20.2042 11.9212 20.3761 11.9212 20.5859C11.9212 20.8145 12.0591 21 12.2291 21H13.273C11.5369 21.6877 10.1588 22.9976 9.43966 24.6436C9.43881 24.6459 9.43784 24.6481 9.43674 24.6503C9.38366 24.7724 9.33427 24.8964 9.28858 25.0221C9.28866 25.0234 9.28866 25.0247 9.28858 25.0259C9.27633 25.0602 9.26437 25.0944 9.2527 25.1289C9.24833 25.1413 9.24395 25.1537 9.23987 25.1664C9.22937 25.1974 9.21965 25.2285 9.2107 25.26C9.20545 25.276 9.20049 25.2923 9.19554 25.3083C9.1862 25.3379 9.17716 25.3677 9.16841 25.3975L9.15266 25.4527C9.1445 25.4803 9.13633 25.5098 9.12875 25.5385C9.12321 25.559 9.11795 25.5791 9.1127 25.5995C9.1057 25.6271 9.09841 25.6547 9.0917 25.6824C9.085 25.71 9.07858 25.7376 9.07216 25.7668C9.06575 25.7961 9.05758 25.8303 9.05058 25.8623H8.63437C8.55434 25.8607 8.47476 25.8741 8.4003 25.902C8.32584 25.9298 8.25801 25.9714 8.20078 26.0244C8.14356 26.0774 8.09808 26.1407 8.06704 26.2105C8.036 26.2803 8.02001 26.3553 8.02001 26.4311C8.02001 26.5069 8.036 26.5819 8.06704 26.6517C8.09808 26.7215 8.14356 26.7848 8.20078 26.8378C8.25801 26.8908 8.32584 26.9324 8.4003 26.9602C8.47476 26.9881 8.55434 27.0015 8.63437 26.9999H23.3856C23.4657 27.0015 23.5453 26.9881 23.6197 26.9602C23.6942 26.9324 23.762 26.8908 23.8192 26.8378C23.8765 26.7848 23.9219 26.7215 23.953 26.6517C23.984 26.5819 24 26.5069 24 26.4311C24 26.3553 23.984 26.2803 23.953 26.2105C23.9219 26.1407 23.8765 26.0774 23.8192 26.0244C23.762 25.9714 23.6942 25.9298 23.6197 25.902C23.5453 25.8741 23.4657 25.8607 23.3856 25.8623L23.3804 25.8574Z" fill="white"/>
<path d="M23.3804 25.8574H22.9645C22.9645 25.8529 22.9624 25.8485 22.9616 25.8444L22.9502 25.7936C22.9429 25.7602 22.935 25.7271 22.9268 25.6942C22.9233 25.6788 22.9196 25.6633 22.9158 25.6478C22.905 25.6045 22.8936 25.5612 22.8819 25.5178L22.8784 25.5054C22.8656 25.4585 22.8522 25.4117 22.8382 25.3652L22.8242 25.3202C22.8146 25.2882 22.8043 25.2564 22.795 25.2247C22.7895 25.2073 22.7836 25.1902 22.7781 25.1731C22.7679 25.1424 22.7574 25.1118 22.7466 25.0814C22.7411 25.0654 22.7352 25.0491 22.7297 25.0334C22.7161 24.9953 22.7021 24.9575 22.6877 24.9199C22.6845 24.9119 22.6818 24.9042 22.6786 24.8962C22.6617 24.852 22.6439 24.8081 22.6258 24.7643C22.6194 24.7482 22.6127 24.7325 22.606 24.7168C22.5938 24.6892 22.5815 24.6588 22.569 24.6301L22.5454 24.5768C22.5331 24.5492 22.5206 24.5216 22.5077 24.494C22.4999 24.4769 22.4917 24.4595 22.4835 24.4424C22.4686 24.4107 22.4543 24.3792 22.4377 24.348C22.4316 24.3361 22.4261 24.324 22.4199 24.3118C22.3992 24.2707 22.3779 24.229 22.3563 24.1893L22.3272 24.1377L22.2861 24.0629L22.254 24.0076C22.2406 23.9845 22.2271 23.9613 22.2134 23.9381C22.2026 23.9193 22.1916 23.9005 22.1805 23.8829C22.1653 23.8578 22.1513 23.8332 22.1347 23.8084L22.0927 23.741C22.0729 23.7101 22.053 23.6789 22.0326 23.6483C22.0198 23.6289 22.0069 23.6099 21.9938 23.5908C21.9807 23.5718 21.9664 23.55 21.9524 23.5298C21.9384 23.5097 21.9232 23.4895 21.9104 23.4697C21.8976 23.4498 21.8836 23.4318 21.8699 23.4145C21.8561 23.3971 21.8407 23.3739 21.8258 23.3537L21.7847 23.2985C21.7555 23.2618 21.7287 23.2251 21.7001 23.1881L21.6601 23.1376C21.6432 23.1163 21.6257 23.0954 21.6085 23.0744L21.57 23.028C21.5522 23.0067 21.5341 22.9858 21.5161 22.9645L21.4781 22.9209L21.4216 22.8569L21.388 22.8199C21.3183 22.7434 21.2469 22.6681 21.1736 22.5946L21.1416 22.5623L21.0745 22.4969L21.0415 22.4654C21.0182 22.4431 20.9949 22.421 20.9712 22.3992L20.947 22.3771C20.8645 22.3012 20.7796 22.2272 20.6933 22.1563L20.6696 22.1367C20.643 22.1146 20.6162 22.0928 20.5891 22.0713L20.5623 22.0497C20.5331 22.0277 20.5066 22.0058 20.4783 21.984L20.464 21.9733C20.3686 21.9004 20.2709 21.8295 20.1724 21.7613L20.1587 21.7516C20.1274 21.7304 20.0962 21.7094 20.0647 21.6887L20.044 21.6752C20.0119 21.6539 19.9796 21.6332 19.9472 21.6125L19.9417 21.6092C19.8343 21.5413 19.7249 21.4762 19.6135 21.414L19.6092 21.4113C19.5739 21.3917 19.5386 21.3726 19.5033 21.3536L19.4878 21.3453C19.3 21.245 19.1071 21.153 18.9092 21.0693L18.8969 21.064C18.8447 21.0419 18.7922 21.0207 18.7391 20.9997H19.783C19.953 20.9997 20.091 20.8145 20.091 20.5857C20.091 20.3568 19.953 20.1716 19.783 20.1716H19.4721C19.4913 20.1252 19.5126 20.0728 19.5357 20.0137C19.8297 19.8404 20.3471 19.471 20.8604 18.7925L20.8645 18.7873C20.9034 18.7365 20.9416 18.684 20.9791 18.6297L20.9867 18.6189C21.024 18.5656 21.0614 18.5107 21.0981 18.4533L21.108 18.4381C21.1255 18.4105 21.143 18.3829 21.1605 18.3553C21.1605 18.3553 21.1605 18.3531 21.1626 18.3517C21.1806 18.3241 21.1984 18.2937 21.2162 18.2642L21.2276 18.2452C21.2428 18.2198 21.2582 18.1938 21.2731 18.1676C21.276 18.1629 21.2789 18.1582 21.2816 18.1532C21.2988 18.1234 21.316 18.0931 21.3329 18.0624L21.3446 18.0412C21.3586 18.0158 21.3723 17.9901 21.386 17.9642C21.3901 17.957 21.3941 17.9495 21.3979 17.9421C21.4143 17.9109 21.4306 17.8794 21.4469 17.8474L21.4583 17.825C21.4711 17.7991 21.4843 17.7726 21.4971 17.7461L21.5111 17.7185C21.5269 17.6859 21.5423 17.6528 21.5578 17.6194L21.5674 17.5981C21.5802 17.5705 21.5928 17.5429 21.6053 17.5153L21.6202 17.4822C21.6348 17.4488 21.6494 17.4151 21.6634 17.3812C21.666 17.3751 21.6686 17.3687 21.6709 17.3627C21.6841 17.3315 21.6969 17.2997 21.7097 17.2677L21.7243 17.2313C21.7363 17.2009 21.7482 17.1703 21.7599 17.1396L21.7686 17.1165C21.7824 17.08 21.7958 17.0428 21.8092 17.006L21.8232 16.9668C21.8337 16.9376 21.8439 16.9078 21.8541 16.878C21.8579 16.8669 21.8617 16.8559 21.8652 16.8448C21.878 16.8067 21.8909 16.7678 21.9034 16.7289C21.9075 16.7154 21.9119 16.7013 21.9159 16.6886L21.9451 16.5978C21.9489 16.5845 21.953 16.5702 21.9568 16.5583C21.9687 16.5183 21.9807 16.4774 21.9921 16.4363C21.9959 16.4233 21.9994 16.4101 22.0029 16.3968C22.0116 16.3651 22.0204 16.3333 22.0288 16.301C22.0326 16.2864 22.0364 16.2718 22.0405 16.2572C22.0513 16.2146 22.0621 16.1719 22.0726 16.1285L22.0813 16.0924C22.0895 16.0579 22.0976 16.0231 22.1055 15.988L22.116 15.9411C22.1259 15.8961 22.1359 15.8511 22.1452 15.8053C22.1472 15.7965 22.149 15.7873 22.1507 15.7777C22.1589 15.7382 22.1668 15.6982 22.1744 15.6582C22.1776 15.6419 22.1805 15.6256 22.1837 15.6093C22.1913 15.5682 22.1986 15.5265 22.2059 15.4854C22.2073 15.4765 22.2091 15.468 22.2105 15.4594C22.2187 15.4108 22.2267 15.3619 22.2344 15.3126C22.2371 15.296 22.2397 15.2794 22.242 15.2626C22.2481 15.2226 22.254 15.1823 22.2598 15.1414L22.2651 15.1039C22.2721 15.0531 22.2788 15.002 22.2852 14.9501C22.2872 14.9338 22.289 14.9176 22.291 14.901C22.2961 14.8598 22.3007 14.8184 22.305 14.7768C22.3068 14.7619 22.3085 14.7472 22.31 14.7323C22.3156 14.679 22.3209 14.6252 22.3257 14.5709C22.3257 14.5557 22.3284 14.5405 22.3295 14.525C22.3333 14.4814 22.3371 14.4375 22.3403 14.3934C22.3403 14.3771 22.3429 14.3608 22.3441 14.3445C22.3482 14.2882 22.352 14.2315 22.3555 14.1745C22.3555 14.1615 22.3555 14.1469 22.3575 14.1353C22.3601 14.0878 22.3628 14.0401 22.3648 13.992C22.3648 13.9746 22.3648 13.9572 22.3671 13.9398C22.3695 13.8805 22.3718 13.8209 22.3736 13.7604C22.3736 13.7521 22.3736 13.7436 22.3736 13.735C22.3751 13.6813 22.3763 13.627 22.3771 13.5722C22.3771 13.5542 22.3771 13.5363 22.3771 13.5183C22.3771 13.4595 22.3771 13.4002 22.3771 13.3406V13.3268C22.3771 13.2633 22.3771 13.199 22.3771 13.1336V13.0783C22.3771 13.0231 22.3747 12.9652 22.3733 12.9078V12.8766C22.3712 12.8103 22.3686 12.7432 22.366 12.6759C22.366 12.6585 22.3642 12.6408 22.3636 12.6234C22.3611 12.5668 22.3582 12.5097 22.3549 12.4523C22.3549 12.4382 22.3549 12.4247 22.3526 12.4095C22.3485 12.3405 22.344 12.2709 22.3391 12.2008L22.3356 12.152C22.3313 12.0935 22.3269 12.0347 22.3219 11.9753C22.3219 11.9582 22.3193 11.9411 22.3179 11.924C22.3117 11.8522 22.305 11.7796 22.298 11.7067C22.298 11.6929 22.2951 11.6791 22.2939 11.6651C22.2878 11.6029 22.2811 11.5403 22.2744 11.4771C22.2724 11.458 22.2703 11.4393 22.268 11.4202C22.2598 11.3451 22.2511 11.2698 22.2417 11.1933C22.2417 11.1839 22.2391 11.1745 22.2379 11.1657C22.2296 11.0972 22.2207 11.0284 22.2114 10.9592C22.2085 10.9388 22.2058 10.9184 22.2029 10.898C22.192 10.8196 22.1809 10.7405 22.1694 10.6608C21.0027 2.80104 12.7352 4.07659 12.7352 4.07659L13 5.76537L8 10.7644L8.21846 12.6947L10.1125 13.7988C10.197 13.5957 10.3054 13.4022 10.4357 13.2222C11.6578 11.8881 14.0287 10.8408 14.7074 10.6236C14.8433 10.5802 14.9206 10.5584 14.9206 10.5584C11.6741 14.535 12.0434 19.0906 12.188 20.1766C12.0375 20.2042 11.9212 20.3761 11.9212 20.5859C11.9212 20.8145 12.0591 21 12.2291 21H13.273C11.5369 21.6877 10.1588 22.9976 9.43966 24.6436C9.43881 24.6459 9.43784 24.6481 9.43674 24.6503C9.38366 24.7724 9.33427 24.8964 9.28858 25.0221C9.28866 25.0234 9.28866 25.0247 9.28858 25.0259C9.27633 25.0602 9.26437 25.0944 9.2527 25.1289C9.24833 25.1413 9.24395 25.1537 9.23987 25.1664C9.22937 25.1974 9.21965 25.2285 9.2107 25.26C9.20545 25.276 9.20049 25.2923 9.19554 25.3083C9.1862 25.3379 9.17716 25.3677 9.16841 25.3975L9.15266 25.4527C9.1445 25.4803 9.13633 25.5098 9.12875 25.5385C9.12321 25.559 9.11795 25.5791 9.1127 25.5995C9.1057 25.6271 9.09841 25.6547 9.0917 25.6824C9.085 25.71 9.07858 25.7376 9.07216 25.7668C9.06575 25.7961 9.05758 25.8303 9.05058 25.8623H8.63437C8.55434 25.8607 8.47476 25.8741 8.4003 25.902C8.32584 25.9298 8.25801 25.9714 8.20078 26.0244C8.14356 26.0774 8.09808 26.1407 8.06704 26.2105C8.036 26.2803 8.02001 26.3553 8.02001 26.4311C8.02001 26.5069 8.036 26.5819 8.06704 26.6517C8.09808 26.7215 8.14356 26.7848 8.20078 26.8378C8.25801 26.8908 8.32584 26.9324 8.4003 26.9602C8.47476 26.9881 8.55434 27.0015 8.63437 26.9999H23.3856C23.4657 27.0015 23.5453 26.9881 23.6197 26.9602C23.6942 26.9324 23.762 26.8908 23.8192 26.8378C23.8765 26.7848 23.9219 26.7215 23.953 26.6517C23.984 26.5819 24 26.5069 24 26.4311C24 26.3553 23.984 26.2803 23.953 26.2105C23.9219 26.1407 23.8765 26.0774 23.8192 26.0244C23.762 25.9714 23.6942 25.9298 23.6197 25.902C23.5453 25.8741 23.4657 25.8607 23.3856 25.8623L23.3804 25.8574Z" stroke="white" stroke-width="1.73239" mask="url(#path-2-outside-1_312_14)"/>
</svg>
